<svg xmlns="http://www.w3.org/2000/svg" viewBox="0 0 512 512" id="Work"><path d="M452 120h-76C376 53.726 322.274 0 256 0S136 53.726 136 120H60c-33.137 0-60 26.863-60 60v272c0 33.137 26.863 60 60 60h392c33.137 0 60-26.863 60-60V180c0-33.137-26.863-60-60-60zM256 60c33.137 0 60 26.863 60 60H196c0-33.137 26.863-60 60-60zm146 200v20c0 16.569-13.431 30-30 30-16.569 0-30-13.431-30-30v-20H170v20c0 16.569-13.431 30-30 30-16.569 0-30-13.431-30-30v-20c-16.569 0-30-13.431-30-30s13.431-30 30-30h292c16.569 0 30 13.431 30 30s-13.431 30-30 30z" fill="#ffffff" class="color000000 svgShape"></path></svg>